<svg width="162" height="25" viewBox="0 0 162 25" fill="none" xmlns="http://www.w3.org/2000/svg">
<g clip-path="url(#clip0_80_46)">
<path fill-rule="evenodd" clip-rule="evenodd" d="M0.0910339 9.73353C0.129655 9.4012 1.88138 9.83533 5.0869 10.9222L8.89379 8.72156L10.7697 13.0329C12.7283 13.8593 15.5614 14.8713 15.28 15.2156L14.2234 16.2754L11.851 17.1946L8.94621 17.7545L8.98759 18.3623L8.44414 19.4521L9.8069 24.4012L6.8469 24.7275H1.22207L3.60828 19.3772L3.88414 17.1826L3.9531 15.979C2.59862 14.6138 1.47034 13.0449 0.524137 11.3234C0.488275 11.2545 0.471724 11.2335 0.452413 11.1557C0.413793 11 0.372413 10.8413 0.333793 10.6826C0.251034 10.3653 0.171034 10.0509 0.0910339 9.73353Z" stroke="#121213" stroke-width="0.6"/>
<path fill-rule="evenodd" clip-rule="evenodd" d="M0.281372 9.91321C2.45792 11.1108 4.91861 12.0869 7.41241 13.0928C9.9862 14.0809 12.6759 14.8893 15.0538 15.2815L14.0579 16.1557L11.7931 17.0629L8.79172 17.6437L8.84965 18.3174L8.26482 19.494L9.54758 24.2815L6.7862 24.5599L1.57792 24.5539L3.87586 19.3773L4.13792 17.0839L4.17655 15.8982C2.86068 14.527 1.73517 12.9491 0.728269 11.3054C0.686889 11.2366 0.662062 11.2096 0.639993 11.1288C0.598614 10.9791 0.551717 10.8324 0.510338 10.6827C0.502062 10.6527 0.491027 10.6258 0.482751 10.5958C0.42482 10.3982 0.366889 10.2036 0.308958 10.006C0.300682 9.97608 0.292407 9.94315 0.281372 9.91321Z" stroke="#121213" stroke-width="0.6"/>
<path fill-rule="evenodd" clip-rule="evenodd" d="M7.66896 9.70959C7.75448 9.87427 7.85379 10.03 7.98068 10.1677L7.00965 11.5599L5.49792 11.0419L7.66896 9.70959Z" stroke="#121213" stroke-width="0.6"/>
<path fill-rule="evenodd" clip-rule="evenodd" d="M8.06896 10.2515C8.19586 10.473 8.4193 10.5359 8.72551 10.47L8.67034 12.1796L7.21103 11.6197L8.06896 10.2515Z" stroke="#121213" stroke-width="0.6"/>
<path fill-rule="evenodd" clip-rule="evenodd" d="M8.88827 10.4221C9.05655 10.3982 9.20827 10.3293 9.30483 10.2634L10.3614 12.8083L8.82207 12.2365L8.88827 10.4221Z" stroke="#121213" stroke-width="0.6"/>
<path d="M2.01379 11.1228C2.00551 11.5599 2.03862 12.2725 2.17655 12.7096" stroke="#121213" stroke-width="0.6"/>
<path d="M5.71034 12.6857C5.72138 13.53 5.8262 14.4881 6.09379 15.6198" stroke="#121213" stroke-width="0.6"/>
<path d="M7.79586 13.5659L6.87172 15.8114" stroke="#121213" stroke-width="0.6"/>
<path d="M9.73794 14.6348C9.47035 15.2545 9.02897 15.8204 8.46346 16.3473" stroke="#121213" stroke-width="0.6"/>
<path d="M11.68 15.1198C11.371 15.5868 10.9048 15.9671 10.3421 16.2934" stroke="#121213" stroke-width="0.6"/>
<path d="M13.1752 15.4821L12.4414 16.1916" stroke="#121213" stroke-width="0.6"/>
<path d="M3.70483 11.9761C3.62483 12.7186 3.67449 13.4611 3.91173 14.2036" stroke="#121213" stroke-width="0.6"/>
<path d="M4.42207 16.1348C5.66897 16.7845 7.02621 17.3294 8.5269 17.7396" stroke="#121213" stroke-width="0.138886"/>
<path fill-rule="evenodd" clip-rule="evenodd" d="M6.00827 2.39527C6.04689 2.40126 6.11862 2.36533 6.15724 2.34736L6.67034 2.14676C6.89931 2.07491 7.12276 1.98209 7.35448 1.92521C7.6662 1.84736 7.97517 1.76652 8.28965 1.70964C10.3448 1.34736 12.1379 1.92521 13.5062 3.83838C13.5255 3.86533 13.5365 3.8773 13.5531 3.90425C13.5724 3.9282 13.5807 3.94617 13.6 3.97012L13.8648 4.38629C14 4.60185 14.251 5.06892 14.3559 5.31742C14.3669 5.34736 14.3697 5.35934 14.3862 5.38928C14.4165 5.44617 14.4248 5.48808 14.4552 5.54197C14.5186 5.65874 14.5572 5.79048 14.6207 5.91024C14.6593 5.98209 14.6814 6.06892 14.7255 6.14078C14.7752 6.1288 14.8193 6.09587 14.8717 6.0809L15.8952 5.64377C15.8841 5.59287 15.8428 5.52102 15.8234 5.47012L15.6414 5.03C15.6248 4.99706 15.6138 4.98509 15.5972 4.94617L15.1807 4.09587L14.6897 3.27551L14.4083 2.87431C14.149 2.53 13.8648 2.21263 13.5586 1.91323C13.5365 1.89227 13.5117 1.86832 13.4841 1.84137C13.1476 1.50904 12.7503 1.25455 12.3559 1.00904L11.9255 0.781495L11.6165 0.646764C11.5559 0.625806 11.4979 0.604848 11.44 0.589878C11.3572 0.565926 11.291 0.532992 11.2083 0.512034C11.0262 0.461136 10.8524 0.410237 10.6648 0.374309L10.1324 0.290477C9.67172 0.233591 9.20552 0.233591 8.74483 0.275507L8.35862 0.317423C8.29241 0.323411 8.24 0.338381 8.17655 0.344369C8.05517 0.356345 7.92827 0.389279 7.80965 0.413231L7.62207 0.452154C7.5862 0.458142 7.56965 0.46413 7.53379 0.473112C7.20827 0.556944 6.87448 0.634788 6.55448 0.757543L6.3862 0.817423C6.32552 0.838381 6.2731 0.859339 6.20965 0.880297C6.15172 0.898261 6.09931 0.922213 6.04138 0.946166C5.90069 1.00605 5.74896 1.04197 5.60827 1.10485C5.57793 1.11682 5.54483 1.1288 5.51448 1.13479C5.52827 1.20365 5.60276 1.36832 5.6331 1.44617C5.65517 1.50006 5.67448 1.54497 5.69655 1.59886L5.75724 1.76353C5.80689 1.91024 5.95586 2.31742 6.00827 2.39527Z" fill="#121213"/>
<path fill-rule="evenodd" clip-rule="evenodd" d="M6.94069 4.50907L7.13931 4.4432C7.39586 4.35937 7.91172 4.16476 8.16827 4.11985C8.31172 4.0929 8.39724 4.06296 8.59862 4.03002L9.04276 3.98811C9.48414 3.96715 9.70207 3.9941 10.1186 4.08991C10.2979 4.13182 10.2676 4.1408 10.3862 4.17973C10.6924 4.27853 10.8414 4.38332 11.0952 4.55697C11.2883 4.68571 11.5531 4.93721 11.7048 5.11685C11.7517 5.17374 11.7986 5.23062 11.8483 5.2935C12.0552 5.542 12.2841 5.9402 12.4331 6.22464L12.5765 6.51506C12.5959 6.55098 12.6041 6.57793 12.6207 6.61685C12.6372 6.66176 12.651 6.67673 12.6676 6.71865C12.7034 6.79949 12.7586 6.96715 12.7945 7.02404C12.8248 7.03003 13.0317 6.93422 13.0841 6.91026L13.8979 6.56595C13.9255 6.55398 13.9503 6.55398 13.9724 6.53601L13.7297 5.94919C13.6028 5.64679 13.2165 4.97913 13.0676 4.76955C12.7255 4.28452 12.5572 4.07494 12.0938 3.66176C11.9503 3.53302 11.6083 3.28152 11.4262 3.18871C11.3821 3.16775 11.3131 3.13182 11.269 3.10487L10.9434 2.9432C10.6676 2.85338 10.5986 2.81446 10.2897 2.73661C10.0938 2.68871 9.86483 2.65577 9.67172 2.6408C9.01241 2.58392 8.36965 2.65278 7.72689 2.82344C7.64138 2.8444 7.5531 2.86835 7.46758 2.89829L6.51586 3.23362C6.48 3.24559 6.48276 3.23961 6.45517 3.26056L6.64551 3.76655C6.64551 3.76955 6.64827 3.77553 6.65103 3.77853L6.66758 3.82344C6.7062 3.93122 6.91034 4.46116 6.94069 4.50907Z" fill="#121213"/>
<path fill-rule="evenodd" clip-rule="evenodd" d="M8.01104 6.61686C8.24828 6.52704 8.52966 6.42824 8.77794 6.38333C9.13932 6.32045 9.39587 6.32644 9.77656 6.49111C10.1076 6.63482 10.3531 6.96417 10.5186 7.24261C10.5793 7.35039 10.6979 7.58393 10.7393 7.6977C10.7531 7.73363 10.7641 7.76057 10.7807 7.79051C10.88 7.76956 11.1062 7.65279 11.2193 7.61686L11.9614 7.2995L11.8041 6.93123C11.7904 6.8983 11.7821 6.89231 11.7683 6.85938C11.7435 6.80548 11.7214 6.76057 11.6938 6.70968C11.5421 6.42225 11.4455 6.27554 11.2497 6.02704C11.1117 5.85339 10.869 5.61986 10.6869 5.48812C10.0635 5.03902 9.45104 4.94321 8.71725 5.01506C8.66208 5.02105 8.61794 5.03303 8.56552 5.03902L8.18208 5.12285C8.10484 5.14381 7.56966 5.30548 7.52277 5.37135C7.53932 5.45818 7.74621 5.91926 7.79311 6.06596L8.01104 6.61686Z" fill="#121213"/>
</g>
<path d="M26.4232 20C25.9912 20 25.5952 19.898 25.2352 19.694C24.8872 19.478 24.6052 19.196 24.3892 18.848C24.1852 18.488 24.0832 18.092 24.0832 17.66V9.38C24.0832 8.948 24.1852 8.558 24.3892 8.21C24.6052 7.85 24.8872 7.568 25.2352 7.364C25.5952 7.148 25.9912 7.04 26.4232 7.04H34.6852C35.1172 7.04 35.5132 7.148 35.8732 7.364C36.2332 7.568 36.5152 7.85 36.7192 8.21C36.9352 8.558 37.0432 8.948 37.0432 9.38V10.154H35.0812V9.434C35.0812 9.314 35.0392 9.212 34.9552 9.128C34.8712 9.032 34.7692 8.984 34.6492 8.984H26.4772C26.3572 8.984 26.2492 9.032 26.1532 9.128C26.0692 9.212 26.0272 9.314 26.0272 9.434V17.606C26.0272 17.726 26.0692 17.834 26.1532 17.93C26.2492 18.014 26.3572 18.056 26.4772 18.056H34.6492C34.7692 18.056 34.8712 18.014 34.9552 17.93C35.0392 17.834 35.0812 17.726 35.0812 17.606V14.852H32.0212V12.89H37.0432V17.66C37.0432 18.092 36.9352 18.488 36.7192 18.848C36.5152 19.196 36.2332 19.478 35.8732 19.694C35.5132 19.898 35.1172 20 34.6852 20H26.4232ZM41.2926 20C40.8606 20 40.4646 19.892 40.1046 19.676C39.7566 19.46 39.4746 19.178 39.2586 18.83C39.0546 18.482 38.9526 18.092 38.9526 17.66V13.808H47.6106V11.954C47.6106 11.834 47.5686 11.732 47.4846 11.648C47.4006 11.552 47.2986 11.504 47.1786 11.504H38.9526V9.56H47.2326C47.6646 9.56 48.0546 9.668 48.4026 9.884C48.7626 10.088 49.0446 10.37 49.2486 10.73C49.4646 11.09 49.5726 11.48 49.5726 11.9V20H41.2926ZM41.3466 18.056H47.6106V15.626H40.8966V17.606C40.8966 17.726 40.9386 17.834 41.0226 17.93C41.1186 18.014 41.2266 18.056 41.3466 18.056ZM51.0824 20V9.56H64.4204C64.8644 9.56 65.2604 9.668 65.6084 9.884C65.9564 10.1 66.2324 10.382 66.4364 10.73C66.6524 11.078 66.7604 11.468 66.7604 11.9V20H64.8344V11.954C64.8344 11.834 64.7864 11.732 64.6904 11.648C64.6064 11.552 64.5044 11.504 64.3844 11.504H60.3704C60.2384 11.504 60.1304 11.552 60.0464 11.648C59.9624 11.732 59.9204 11.834 59.9204 11.954V20H57.9584V11.954C57.9584 11.834 57.9104 11.732 57.8144 11.648C57.7304 11.552 57.6284 11.504 57.5084 11.504H53.4764C53.3564 11.504 53.2544 11.552 53.1704 11.648C53.0864 11.732 53.0444 11.834 53.0444 11.954V20H51.0824ZM70.7004 20C70.2684 20 69.8784 19.892 69.5304 19.676C69.1824 19.46 68.9004 19.178 68.6844 18.83C68.4684 18.482 68.3604 18.092 68.3604 17.66V11.9C68.3604 11.468 68.4684 11.078 68.6844 10.73C68.9004 10.382 69.1824 10.1 69.5304 9.884C69.8784 9.668 70.2684 9.56 70.7004 9.56H76.6404C77.0724 9.56 77.4624 9.668 77.8104 9.884C78.1704 10.088 78.4524 10.37 78.6564 10.73C78.8724 11.09 78.9804 11.48 78.9804 11.9V15.752H70.3044V17.606C70.3044 17.726 70.3464 17.834 70.4304 17.93C70.5264 18.014 70.6344 18.056 70.7544 18.056H78.9804V20H70.7004ZM70.3044 13.934H77.0184V11.954C77.0184 11.834 76.9764 11.732 76.8924 11.648C76.8084 11.552 76.7064 11.504 76.5864 11.504H70.7544C70.6344 11.504 70.5264 11.552 70.4304 11.648C70.3464 11.732 70.3044 11.834 70.3044 11.954V13.934ZM80.9673 15.644V13.7H88.1673V15.644H80.9673ZM90.2481 20V9.38C90.2481 8.948 90.3501 8.558 90.5541 8.21C90.7701 7.85 91.0521 7.568 91.4001 7.364C91.7601 7.148 92.1561 7.04 92.5881 7.04H100.85C101.282 7.04 101.678 7.148 102.038 7.364C102.398 7.568 102.68 7.85 102.884 8.21C103.1 8.558 103.208 8.948 103.208 9.38V20H101.246V15.464H92.1921V20H90.2481ZM92.1921 13.52H101.246V9.434C101.246 9.314 101.204 9.212 101.12 9.128C101.036 9.032 100.934 8.984 100.814 8.984H92.6421C92.5221 8.984 92.4141 9.032 92.3181 9.128C92.2341 9.212 92.1921 9.314 92.1921 9.434V13.52ZM105.223 20V9.56H113.503C113.935 9.56 114.325 9.668 114.673 9.884C115.033 10.1 115.315 10.382 115.519 10.73C115.735 11.078 115.843 11.468 115.843 11.9V20H113.899V11.954C113.899 11.834 113.851 11.732 113.755 11.648C113.671 11.552 113.569 11.504 113.449 11.504H107.617C107.497 11.504 107.389 11.552 107.293 11.648C107.209 11.732 107.167 11.834 107.167 11.954V20H105.223ZM120.078 20C119.646 20 119.25 19.892 118.89 19.676C118.542 19.46 118.26 19.178 118.044 18.83C117.84 18.482 117.738 18.092 117.738 17.66V6.266H119.682V9.56H123.966V11.504H119.682V17.606C119.682 17.726 119.724 17.834 119.808 17.93C119.904 18.014 120.012 18.056 120.132 18.056H123.966V20H120.078ZM127.689 20C127.257 20 126.867 19.892 126.519 19.676C126.171 19.46 125.889 19.178 125.673 18.83C125.457 18.482 125.349 18.092 125.349 17.66V11.9C125.349 11.468 125.457 11.078 125.673 10.73C125.889 10.382 126.171 10.1 126.519 9.884C126.867 9.668 127.257 9.56 127.689 9.56H133.629C134.061 9.56 134.451 9.668 134.799 9.884C135.159 10.088 135.441 10.37 135.645 10.73C135.861 11.09 135.969 11.48 135.969 11.9V15.752H127.293V17.606C127.293 17.726 127.335 17.834 127.419 17.93C127.515 18.014 127.623 18.056 127.743 18.056H135.969V20H127.689ZM127.293 13.934H134.007V11.954C134.007 11.834 133.965 11.732 133.881 11.648C133.797 11.552 133.695 11.504 133.575 11.504H127.743C127.623 11.504 127.515 11.552 127.419 11.648C127.335 11.732 127.293 11.834 127.293 11.954V13.934ZM137.866 20V9.56H146.146C146.578 9.56 146.968 9.668 147.316 9.884C147.676 10.1 147.958 10.382 148.162 10.73C148.378 11.078 148.486 11.468 148.486 11.9V20H146.542V11.954C146.542 11.834 146.494 11.732 146.398 11.648C146.314 11.552 146.212 11.504 146.092 11.504H140.26C140.14 11.504 140.032 11.552 139.936 11.648C139.852 11.732 139.81 11.834 139.81 11.954V20H137.866ZM152.703 20C152.271 20 151.875 19.892 151.515 19.676C151.167 19.46 150.885 19.178 150.669 18.83C150.465 18.482 150.363 18.092 150.363 17.66V13.808H159.021V11.954C159.021 11.834 158.979 11.732 158.895 11.648C158.811 11.552 158.709 11.504 158.589 11.504H150.363V9.56H158.643C159.075 9.56 159.465 9.668 159.813 9.884C160.173 10.088 160.455 10.37 160.659 10.73C160.875 11.09 160.983 11.48 160.983 11.9V20H152.703ZM152.757 18.056H159.021V15.626H152.307V17.606C152.307 17.726 152.349 17.834 152.433 17.93C152.529 18.014 152.637 18.056 152.757 18.056Z" fill="#121213"/>
<defs>
<clipPath id="clip0_80_46">
<rect width="16" height="25" fill="white"/>
</clipPath>
</defs>
</svg>
