<svg width="232" height="207" viewBox="0 0 232 207" fill="none" xmlns="http://www.w3.org/2000/svg">
<g clip-path="url(#clip0_164_101)">
<path d="M168.433 117.464V174.646L178.528 190.234L179.296 191.42H219.126L219.93 117.464H168.433Z" fill="#E6E6E6"/>
<path opacity="0.1" d="M168.433 117.464V174.646L178.528 190.234L179.147 117.464H168.433Z" fill="#EE6807"/>
<path d="M72.2781 115.939V173.122L62.1837 188.71L61.4155 189.895H21.5856L20.7809 115.939H72.2781Z" fill="#E6E6E6"/>
<path opacity="0.1" d="M72.2781 115.939V173.122L62.1837 188.71L61.5642 115.939H72.2781Z" fill="#EE6807"/>
<path d="M232 114.796V118.226H15.5507V113.271L35.6667 103.359H214.298L232 114.796Z" fill="#E6E6E6"/>
<path opacity="0.1" d="M232 114.796V118.226H15.5507V113.271L232 114.796Z" fill="#EE6807"/>
<path d="M46.5296 131.95H36.8737L32.8505 129.282H50.9551L46.5296 131.95Z" fill="#5081FF"/>
<path d="M46.5296 143.006H36.8737L32.8505 140.337H50.9551L46.5296 143.006Z" fill="#5081FF"/>
<path d="M46.5296 158.636H36.8737L32.8505 155.967H50.9551L46.5296 158.636Z" fill="#5081FF"/>
<path d="M46.5296 174.265H36.8737L32.8505 171.597H50.9551L46.5296 174.265Z" fill="#5081FF"/>
<path d="M194.182 133.475H203.838L207.861 130.807H189.756L194.182 133.475Z" fill="#5081FF"/>
<path d="M194.182 144.53H203.838L207.861 141.862H189.756L194.182 144.53Z" fill="#5081FF"/>
<path d="M194.182 160.16H203.838L207.861 157.492H189.756L194.182 160.16Z" fill="#5081FF"/>
<path d="M194.182 175.79H203.838L207.861 173.122H189.756L194.182 175.79Z" fill="#5081FF"/>
<path d="M200.757 37.2332H119.469C119.065 37.2332 118.666 37.3085 118.293 37.4549C117.92 37.6012 117.581 37.8158 117.295 38.0863C117.01 38.3568 116.783 38.6779 116.629 39.0314C116.474 39.3848 116.395 39.7636 116.395 40.1462V92.0313C116.395 92.4138 116.474 92.7926 116.629 93.146C116.783 93.4995 117.01 93.8206 117.295 94.0911C117.581 94.3616 117.92 94.5762 118.293 94.7226C118.666 94.8689 119.065 94.9442 119.469 94.9442H150.327L149.171 101.938C149.171 101.938 142.564 105.264 147.209 105.362C151.855 105.459 173.74 105.362 173.74 105.362C173.74 105.362 177.972 105.362 171.262 101.84L170.175 94.9442H200.757C201.161 94.9442 201.561 94.8689 201.934 94.7226C202.307 94.5762 202.646 94.3616 202.931 94.0911C203.217 93.8206 203.443 93.4995 203.597 93.146C203.752 92.7926 203.831 92.4138 203.831 92.0313V40.1462C203.831 39.7636 203.752 39.3848 203.597 39.0314C203.443 38.6779 203.217 38.3568 202.931 38.0863C202.646 37.8158 202.307 37.6012 201.934 37.4549C201.561 37.3085 201.161 37.2332 200.757 37.2332Z" fill="#5081FF"/>
<path d="M200.889 40.3144H119.337V83.5487H200.889V40.3144Z" fill="#F2F2F2"/>
<path d="M160.113 39.4341C160.398 39.4341 160.629 39.2151 160.629 38.945C160.629 38.6749 160.398 38.4559 160.113 38.4559C159.828 38.4559 159.597 38.6749 159.597 38.945C159.597 39.2151 159.828 39.4341 160.113 39.4341Z" fill="#F2F2F2"/>
<path d="M160.113 92.8412C161.196 92.8412 162.074 92.0091 162.074 90.9827C162.074 89.9563 161.196 89.1242 160.113 89.1242C159.03 89.1242 158.152 89.9563 158.152 90.9827C158.152 92.0091 159.03 92.8412 160.113 92.8412Z" fill="#F2F2F2"/>
<path d="M157.057 110.644V111.622H101.519V110.839L101.595 110.644L102.964 107.122H155.921L157.057 110.644Z" fill="#5081FF"/>
<path d="M178.43 109.686C178.328 110.096 177.946 110.528 177.083 110.937C173.987 112.404 167.689 110.546 167.689 110.546C167.689 110.546 162.838 109.763 162.838 107.709C162.974 107.621 163.116 107.541 163.263 107.469C164.565 106.817 168.882 105.206 176.537 107.538C177.101 107.705 177.604 108.018 177.992 108.441C178.163 108.601 178.293 108.797 178.369 109.014C178.445 109.23 178.466 109.46 178.43 109.686Z" fill="#5081FF"/>
<path opacity="0.1" d="M178.43 109.686C174.639 111.062 171.26 111.165 167.793 108.883C166.481 107.964 164.894 107.469 163.263 107.469C164.565 106.817 168.882 105.206 176.537 107.538C177.101 107.705 177.604 108.018 177.992 108.441C178.163 108.601 178.293 108.797 178.369 109.014C178.445 109.23 178.466 109.46 178.43 109.686Z" fill="#EE6807"/>
<path d="M173.677 108.883C174.418 108.883 175.019 108.708 175.019 108.492C175.019 108.276 174.418 108.1 173.677 108.1C172.936 108.1 172.335 108.276 172.335 108.492C172.335 108.708 172.936 108.883 173.677 108.883Z" fill="#F2F2F2"/>
<path opacity="0.1" d="M157.057 110.644V111.622H101.519V110.839L101.595 110.644H157.057Z" fill="#EE6807"/>
<path d="M30.88 4.92819e-05C30.3163 -0.0438011 29.7519 0.0756681 29.2615 0.342626C28.78 0.655066 28.4766 1.20243 28.1668 1.71178C26.9824 3.68249 25.379 5.39866 23.4581 6.75157C22.059 7.72277 20.2802 8.93373 20.5196 10.7244C20.6459 11.3157 20.8764 11.8827 21.2016 12.4014C22.4923 14.8702 26.0144 16.778 25.668 19.5951C26.9503 17.561 25.2351 16.5551 26.5174 14.521C27.1281 13.5522 28.189 12.4587 29.111 13.0671C29.4197 13.2708 29.6225 13.6361 29.9439 13.8149C30.7109 14.2413 31.5269 13.426 32.2058 12.8485C34.547 10.8571 37.8764 11.3788 40.7898 11.9993C42.1652 12.2922 43.6759 12.6765 44.489 13.9221C45.558 15.5598 43.4733 17.3285 42.9466 19.1801C42.9036 19.3379 42.9016 19.5031 42.9407 19.6618C42.9798 19.8205 43.0589 19.9678 43.1712 20.0912C43.2835 20.2146 43.4257 20.3104 43.5856 20.3704C43.7455 20.4304 43.9183 20.4528 44.0893 20.4357C44.9635 20.354 45.999 20.287 46.0508 19.9235C47.1506 19.9606 48.4983 19.8426 48.9695 18.7574C49.1135 18.3281 49.1897 17.8809 49.1954 17.4304C49.3684 15.6076 50.1849 13.9446 50.7258 12.2097C51.2667 10.4748 51.5018 8.44161 50.589 6.90342C50.2633 6.39164 49.8604 5.92768 49.3931 5.5262C44.2132 0.776316 37.4027 -0.00700133 30.88 4.92819e-05Z" fill="#121213"/>
<path d="M26.7945 23.1533C26.7945 23.1533 27.9211 32.0488 23.7904 32.7604C19.6597 33.472 27.5456 45.5699 27.5456 45.5699L46.3214 47.7048L41.8152 33.472C41.8152 33.472 38.8111 32.4046 40.6887 25.2882C42.5663 18.1719 26.7945 23.1533 26.7945 23.1533Z" fill="#FFB8B8"/>
<path d="M15.3412 175.977L16.8435 195.547H24.729L22.4762 175.977H15.3412Z" fill="#FFB8B8"/>
<path d="M73.1709 138.972L74.2974 155.34L82.9346 151.782L79.5546 138.261L73.1709 138.972Z" fill="#FFB8B8"/>
<path d="M9.70848 101.255C9.70848 101.255 10.084 121.893 12.3371 128.653C14.5902 135.414 14.2147 135.77 13.8392 136.837C13.4637 137.905 13.0881 137.193 13.0881 138.972C13.0881 140.751 12.3371 168.861 13.0881 171.352C13.8392 173.842 10.835 178.112 13.0881 178.468C15.3413 178.824 25.8557 178.468 26.2313 176.333C26.6068 174.198 23.2271 173.486 24.7292 172.063C26.2313 170.64 28.4844 141.463 28.4844 141.463L33.7416 121.181L43.5051 110.507H64.1585L70.5423 133.991C70.5423 133.991 67.9137 140.751 69.7913 140.751C71.6689 140.751 82.9344 142.886 82.9344 135.058C82.9344 127.23 79.1792 104.102 78.4282 103.39C77.6772 102.679 78.8037 100.188 77.6772 99.1205C76.5506 98.053 63.4075 90.5808 58.5258 89.1576C53.644 87.7343 46.7958 86.0403 46.7958 86.0403L9.70848 101.255Z" fill="#121213"/>
<path d="M82.9344 148.935C82.9344 148.935 77.3017 147.156 74.673 152.493C72.0444 157.83 73.171 159.254 73.171 159.254C73.171 159.254 81.8079 162.1 83.3099 160.677C83.9634 160.058 86.0386 159.843 88.1747 159.797C91.428 159.728 92.2936 155.367 89.221 154.351C89.1294 154.321 89.0366 154.295 88.9427 154.272C85.9385 153.561 82.9344 148.935 82.9344 148.935Z" fill="#121213"/>
<path d="M35.2437 29.0243C41.4655 29.0243 46.5092 24.2452 46.5092 18.3498C46.5092 12.4544 41.4655 7.67523 35.2437 7.67523C29.0219 7.67523 23.9781 12.4544 23.9781 18.3498C23.9781 24.2452 29.0219 29.0243 35.2437 29.0243Z" fill="#FFB8B8"/>
<path d="M20.5985 37.2081C20.5985 37.2081 38.9988 40.7663 43.5051 35.0732C48.0113 29.3801 49.8889 51.085 49.8889 51.085L52.142 73.8574L48.7623 86.311C48.7623 86.311 31.113 99.8321 25.4802 100.9C19.8475 101.967 11.2105 102.679 11.2105 102.679C11.2105 102.679 13.8392 63.1828 13.8392 62.4712C13.8392 61.7596 20.5985 37.2081 20.5985 37.2081Z" fill="#EE6807"/>
<path d="M26.1945 30.5349C26.1945 30.5349 22.1006 28.3127 20.974 30.4476C19.8474 32.5825 9.33295 37.9198 8.2064 37.9198C7.07985 37.9198 10.4595 67.4527 8.95744 71.0108C7.45537 74.569 0.320536 100.544 4.45123 102.679C8.58192 104.814 5.57778 100.544 9.70847 105.881C13.8392 111.218 34.1171 111.218 35.2437 109.083C36.3702 106.948 26.2312 90.9366 28.1088 75.9923C29.9864 61.048 32.9906 40.4105 30.3619 37.564C27.7333 34.7174 26.1945 30.5349 26.1945 30.5349Z" fill="#121213"/>
<path d="M39.7499 32.9383L40.273 31.2327C40.273 31.2327 55.8972 36.1407 56.6482 39.343C57.3993 42.5454 57.0237 64.9619 54.3951 66.741C51.7665 68.5201 48.0113 71.3667 50.6399 75.6365C53.2686 79.9063 56.2727 84.5319 58.5258 84.8878C60.7789 85.2436 64.9096 87.7343 63.783 90.225C62.6565 92.7157 49.1379 88.0901 49.1379 88.0901C49.1379 88.0901 40.1254 81.6854 40.5009 71.7225C40.8765 61.7596 39.7499 32.9383 39.7499 32.9383Z" fill="#121213"/>
<path d="M52.893 74.9248L43.8806 90.9367C43.8806 90.9367 30.7375 103.746 38.2478 105.169C45.7582 106.593 49.8889 93.4274 49.8889 93.4274L59.6523 80.2621L52.893 74.9248Z" fill="#FFB8B8"/>
<path d="M31.4288 2.793C30.9747 2.76112 30.5198 2.84471 30.1113 3.03513C29.7419 3.29078 29.4374 3.6214 29.2201 4.00284C28.2185 5.43044 26.9129 6.64378 25.3871 7.56493C24.2481 8.25137 22.8001 9.10726 22.995 10.3729C23.1008 10.7972 23.289 11.1992 23.5502 11.5582C24.6045 13.3207 25.0242 15.3608 24.7458 17.3695L27.8775 13.0563C28.3746 12.3716 29.2382 11.5987 29.9888 12.0287C30.2401 12.1727 30.4051 12.4309 30.6668 12.5572C31.2911 12.8587 31.9554 12.2824 32.5081 11.8742C34.4139 10.4667 37.1242 10.8354 39.4958 11.274C40.6154 11.481 41.8452 11.7527 42.5071 12.633C43.607 14.096 42.4585 16.21 43.1004 17.9001C43.2801 17.7809 43.4327 17.6287 43.5492 17.4526C43.6656 17.2765 43.7436 17.08 43.7784 16.8748C44.6738 16.901 45.7708 16.8176 46.1544 16.0506C46.2711 15.75 46.3333 15.4329 46.3383 15.1127C46.4791 13.8243 47.1438 12.6489 47.5841 11.4227C48.0244 10.1965 48.2158 8.75943 47.4728 7.67225C47.2009 7.30389 46.8729 6.97584 46.4993 6.69884C42.2826 3.34166 36.7385 2.78802 31.4288 2.793Z" fill="#121213"/>
<path d="M52.893 37.9198L56.3917 38.7997C56.3917 38.7997 64.534 58.5572 62.6565 72.0783C60.7789 85.5994 59.6523 82.7529 59.6523 82.7529C59.6523 82.7529 56.6482 76.3481 49.8889 77.7714L52.893 37.9198Z" fill="#121213"/>
<path d="M15.8615 192.961C14.956 194.127 15.1375 195.794 14.3354 197.026C13.6401 198.094 12.3297 198.654 11.46 199.6C11.1825 199.915 10.9351 200.252 10.7207 200.608C9.91397 201.888 9.25822 203.529 10.0528 204.817C10.692 205.852 12.0355 206.257 13.2676 206.533C14.825 206.881 16.4431 207.16 18.0185 206.894C19.5938 206.628 21.1334 205.714 21.6951 204.294C21.8055 203.937 21.9368 203.586 22.0882 203.243C22.9421 201.65 25.6203 201.633 26.4942 200.05C27.1057 198.942 26.5436 197.603 25.9817 196.471L24.2654 193.017C23.6959 191.87 21.387 192.529 20.1833 192.255C18.6135 191.896 16.9908 191.502 15.8615 192.961Z" fill="#121213"/>
<path d="M3.32468 82.0412L19.0964 105.169C19.0964 105.169 28.8599 116.911 31.864 111.574C34.8682 106.237 21.3495 97.3414 21.3495 97.3414L11.2105 79.5505L3.32468 82.0412Z" fill="#FFB8B8"/>
<path d="M11.2105 38.6314L8.2064 37.9198C8.2064 37.9198 2.19812 39.6989 0.696052 47.171C-0.806016 54.6432 0.320533 84.5319 2.19812 84.8878C4.07571 85.2436 11.4715 79.6835 12.6553 80.8624C13.8392 82.0412 10.084 75.9923 11.2105 72.7899C12.3371 69.5876 11.2105 38.6314 11.2105 38.6314Z" fill="#121213"/>
<path d="M152.394 54.514H142.689V56.728H152.394V54.514Z" fill="#EE6807"/>
<path d="M186.005 54.514H182.59V56.728H186.005V54.514Z" fill="#EE6807"/>
<path d="M192.834 54.514H189.42V56.728H192.834V54.514Z" fill="#EE6807"/>
<path d="M178.995 54.514H155.809V56.728H178.995V54.514Z" fill="#EE6807"/>
<path d="M140.172 68.8197H130.467V71.0337H140.172V68.8197Z" fill="#EE6807"/>
<path d="M173.783 68.8197H170.368V71.0337H173.783V68.8197Z" fill="#EE6807"/>
<path d="M180.613 68.8197H177.198V71.0337H180.613V68.8197Z" fill="#EE6807"/>
<path d="M166.773 68.8197H143.587V71.0337H166.773V68.8197Z" fill="#EE6807"/>
<path d="M180.253 59.4529H170.547V61.6668H180.253V59.4529Z" fill="#EE6807"/>
<path d="M193.374 59.4529H183.668V61.6668H193.374V59.4529Z" fill="#EE6807"/>
<path d="M133.882 59.4529H130.467V61.6668H133.882V59.4529Z" fill="#EE6807"/>
<path d="M140.712 59.4529H137.297V61.6668H140.712V59.4529Z" fill="#EE6807"/>
<path d="M167.312 59.4529H144.126V61.6668H167.312V59.4529Z" fill="#EE6807"/>
<path d="M160.123 64.2214H150.417V66.4354H160.123V64.2214Z" fill="#EE6807"/>
<path d="M147.002 64.2214H137.297V66.4354H147.002V64.2214Z" fill="#EE6807"/>
<path d="M133.882 64.2214H130.467V66.4354H133.882V64.2214Z" fill="#EE6807"/>
<path d="M193.374 64.2214H189.959V66.4354H193.374V64.2214Z" fill="#EE6807"/>
<path d="M186.544 64.2214H163.358V66.4354H186.544V64.2214Z" fill="#EE6807"/>
</g>
<defs>
<clipPath id="clip0_164_101">
<rect width="232" height="207" fill="white"/>
</clipPath>
</defs>
</svg>
